# xmcd
#
# Track frame offsets:
#	150
#	16197
#	32892
#	50387
#	67125
#	85012
#	99637
#	112012
#	128855
#	152442
#	167727
#	183200
#	199200
#
# Disc length: 2852 seconds
#
# Revision: 0
# Processed by: cddbd v1.4PL0 Copyright (c) Steve Scherf et al.
# Submitted via: dBpowerAMP V4.0
#
DISCID=a80b220d
DTITLE=Renee Geyer - It's a Man's Man's World
DYEAR=1900
DGENRE=Blues
TTITLE0=It's a man's man's world
TTITLE1=They tell me of an uncloudy day
TTITLE2=Take me where you took me last night
TTITLE3=Since I fell for you
TTITLE4=What do I do on Sunday Morning
TTITLE5=Love the way you love
TTITLE6=Scarlet Ribbons
TTITLE7=Do your thing
TTITLE8=And I love him
TTITLE9=It's been a long time
TTITLE10=Mama's little girl
TTITLE11=Once in a lifetime thing
TTITLE12=Feel Good
EXTD=
EXTT0=
EXTT1=
EXTT2=
EXTT3=
EXTT4=
EXTT5=
EXTT6=
EXTT7=
EXTT8=
EXTT9=
EXTT10=
EXTT11=
EXTT12=
PLAYORDER=
